<svg width="41" height="41" viewBox="0 0 41 41" fill="none" xmlns="http://www.w3.org/2000/svg">
<g clip-path="url(#clip0_19_39)">
<path d="M31.3906 0H9.60938C4.30226 0 0 4.30226 0 9.60938V31.3906C0 36.6977 4.30226 41 9.60938 41H31.3906C36.6977 41 41 36.6977 41 31.3906V9.60938C41 4.30226 36.6977 0 31.3906 0Z" fill="#CD6799"/>
<mask id="mask0_19_39" style="mask-type:luminance" maskUnits="userSpaceOnUse" x="4" y="8" width="33" height="25">
<path d="M4.48438 8.48828H36.5156V32.4971H4.48438V8.48828Z" fill="white"/>
</mask>
<g mask="url(#mask0_19_39)">
<path d="M32.0484 22.2879C30.9315 22.2937 29.9609 22.5628 29.1481 22.9603C28.8499 22.3698 28.5517 21.8435 28.499 21.4575C28.4405 21.0073 28.3704 20.7325 28.4405 20.1945C28.5107 19.6566 28.8265 18.8907 28.8206 18.8322C28.8148 18.7736 28.7504 18.499 28.1073 18.493C27.4641 18.4873 26.9087 18.6159 26.8443 18.7855C26.7799 18.9549 26.6572 19.3409 26.5754 19.7386C26.4642 20.3233 25.2888 22.4108 24.6165 23.5042C24.4001 23.0773 24.2131 22.7031 24.1721 22.4048C24.1136 21.9546 24.0435 21.6798 24.1136 21.1419C24.1838 20.6039 24.4996 19.8379 24.4937 19.7794C24.4879 19.7209 24.4235 19.4461 23.7803 19.4404C23.1371 19.4344 22.5815 19.563 22.5173 19.7326C22.4529 19.9022 22.3828 20.2999 22.2483 20.6857C22.1139 21.0717 20.5527 24.5567 20.1433 25.4571C19.9779 25.8215 19.8044 26.1821 19.623 26.5388C19.623 26.5388 19.6171 26.5564 19.5996 26.5856C19.5425 26.6974 19.484 26.8085 19.4241 26.9188V26.9248C19.3365 27.0827 19.2428 27.2288 19.196 27.2288C19.1609 27.2288 19.0967 26.8079 19.2077 26.2348C19.4417 25.0244 19.9971 23.1416 19.9913 23.0773C19.9913 23.0423 20.0966 22.7147 19.6287 22.5451C19.1726 22.3755 19.0089 22.6563 18.9679 22.6563C18.9271 22.6563 18.8978 22.7557 18.8978 22.7557C18.8978 22.7557 19.4066 20.639 17.9272 20.639C17.0033 20.639 15.7286 21.6505 15.0973 22.5628C14.3793 22.9534 13.662 23.3451 12.9453 23.738C12.6005 23.931 12.2438 24.124 11.9103 24.3053C11.887 24.2819 11.8636 24.2526 11.8402 24.2292C10.0509 22.3171 6.74145 20.9665 6.88175 18.3995C6.93444 17.4639 7.25604 15.008 13.2377 12.0259C18.1611 9.59939 22.0788 10.2717 22.7571 11.7628C23.7276 13.8913 20.6579 17.8439 15.5709 18.417C13.6295 18.6333 12.6121 17.8849 12.3549 17.6043C12.0859 17.3119 12.0449 17.2944 11.9454 17.3529C11.7817 17.4405 11.887 17.7036 11.9454 17.8556C12.0976 18.2533 12.7231 18.9549 13.7814 19.2999C14.7171 19.604 16.9916 19.7736 19.7457 18.7094C22.8272 17.5166 25.2363 14.201 24.5287 11.4237C23.8213 8.6053 19.1435 7.67559 14.7171 9.24849C12.0857 10.1841 9.23236 11.6576 7.17996 13.5754C4.74158 15.8561 4.35577 17.8382 4.51368 18.6684C5.08079 21.6154 9.1446 23.5333 10.7702 24.9542C10.6883 25.001 10.6123 25.042 10.548 25.0771C9.73526 25.4805 6.63623 27.1001 5.86428 28.8135C4.98726 30.7548 6.00474 32.1463 6.67707 32.3334C8.76455 32.9124 10.9105 31.8715 12.0625 30.1524C13.2143 28.4333 13.074 26.1997 12.5418 25.1765C12.5361 25.1636 12.5282 25.1517 12.5185 25.1414C12.7291 25.0186 12.9453 24.89 13.1559 24.7672C13.5428 24.5385 13.9347 24.3182 14.3311 24.1063C14.1323 24.6502 13.9861 25.2992 13.916 26.2348C13.8284 27.3341 14.2786 28.7608 14.8691 29.3222C15.1322 29.5677 15.4421 29.5736 15.641 29.5736C16.331 29.5736 16.6409 29.0006 16.9858 28.3223C17.4067 27.4919 17.787 26.5271 17.787 26.5271C17.787 26.5271 17.3132 29.1351 18.5996 29.1351C19.0674 29.1351 19.541 28.527 19.7516 28.2171V28.2228C19.7516 28.2228 19.7633 28.2054 19.7867 28.1644C19.8334 28.0883 19.8626 28.0415 19.8626 28.0415V28.0299C20.0498 27.7025 20.4707 26.9599 21.0964 25.726C21.9033 24.1357 22.681 22.1476 22.681 22.1476C22.681 22.1476 22.7512 22.6329 22.9909 23.4398C23.1312 23.9135 23.4236 24.4339 23.6575 24.9368C23.4704 25.1999 23.3535 25.346 23.3535 25.346L23.3593 25.3519C23.2073 25.5506 23.0436 25.767 22.8623 25.9774C22.2249 26.7377 21.4648 27.609 21.3596 27.8604C21.2367 28.1586 21.266 28.3748 21.4999 28.5504C21.6695 28.679 21.9734 28.6964 22.2833 28.679C22.8564 28.638 23.26 28.4977 23.4587 28.4099C23.7686 28.2989 24.1312 28.1293 24.4703 27.8779C25.096 27.416 25.4761 26.7552 25.441 25.8839C25.4234 25.4044 25.2654 24.9251 25.0726 24.4747C25.1311 24.3929 25.1836 24.311 25.2421 24.2292C26.2304 22.7849 26.9963 21.2003 26.9963 21.2003C26.9963 21.2003 27.0664 21.6856 27.3062 22.4926C27.4231 22.9018 27.6628 23.3462 27.8734 23.779C26.9437 24.5333 26.3707 25.4103 26.166 25.9834C25.7976 27.0476 26.0842 27.527 26.6279 27.6381C26.8736 27.6908 27.2243 27.5739 27.4817 27.4627C27.809 27.3575 28.195 27.1762 28.5634 26.9072C29.189 26.4453 29.7913 25.8021 29.7562 24.9308C29.7386 24.5333 29.6334 24.1414 29.4872 23.7614C30.2766 23.434 31.294 23.2527 32.5921 23.4047C35.3755 23.7322 35.9251 25.4688 35.8197 26.1997C35.7145 26.9305 35.1298 27.3282 34.9368 27.451C34.744 27.5739 34.6796 27.6147 34.6972 27.7025C34.7206 27.8311 34.8141 27.8252 34.9778 27.8018C35.2059 27.761 36.4396 27.2113 36.4922 25.8665C36.58 24.1473 34.9427 22.2703 32.0484 22.2879ZM10.5772 29.5268C9.65342 30.5325 8.36704 30.9127 7.81146 30.5911C7.21504 30.2459 7.44886 28.7608 8.58341 27.6966C9.2732 27.0476 10.1621 26.4453 10.7526 26.0769C10.8871 25.9951 11.0859 25.8782 11.3256 25.7319C11.3666 25.7085 11.39 25.6969 11.39 25.6969L11.5303 25.6091C11.9454 27.1295 11.5477 28.4685 10.5772 29.5268ZM17.3017 24.9542C16.9801 25.7379 16.3077 27.7433 15.8984 27.6323C15.5476 27.5387 15.3313 26.0184 15.8282 24.5157C16.0797 23.7614 16.6117 22.861 16.9216 22.5101C17.4245 21.9487 17.9799 21.7617 18.1145 21.9897C18.2841 22.2879 17.5006 24.463 17.3017 24.9542ZM22.8508 27.609C22.7162 27.6791 22.5876 27.7259 22.5292 27.6908C22.4882 27.6674 22.5876 27.5739 22.5876 27.5739C22.5876 27.5739 23.2835 26.8253 23.5583 26.4863C23.7161 26.2874 23.9033 26.0535 24.1021 25.7904V25.8665C24.1021 26.7611 23.2367 27.3633 22.8508 27.609ZM27.1309 26.6323C27.0315 26.5622 27.0491 26.3284 27.3824 25.5974C27.511 25.3109 27.8151 24.8315 28.3355 24.3695C28.3939 24.5567 28.4349 24.7378 28.429 24.9074C28.4232 26.0361 27.6162 26.457 27.1309 26.6323Z" fill="white"/>
</g>
</g>
<defs>
<clipPath id="clip0_19_39">
<rect width="41" height="41" fill="white"/>
</clipPath>
</defs>
</svg>
