<svg width="41" height="41" viewBox="0 0 41 41" fill="none" xmlns="http://www.w3.org/2000/svg">
<g clip-path="url(#clip0_19_47)">
<path d="M20.5 0.507324C9.17375 0.507324 0 9.6862 0 21.0073C0 30.0666 5.87325 37.749 14.0169 40.4567C15.0419 40.6497 15.4177 40.0159 15.4177 39.471C15.4177 38.9841 15.4006 37.6943 15.3921 35.986C9.68967 37.2228 8.487 33.2356 8.487 33.2356C7.55425 30.8695 6.20638 30.2374 6.20638 30.2374C4.34942 28.9664 6.34987 28.9921 6.34987 28.9921C8.40842 29.1356 9.48979 31.1036 9.48979 31.1036C11.3177 34.2384 14.2885 33.3329 15.4604 32.8085C15.6449 31.4828 16.1728 30.5791 16.7588 30.0666C12.206 29.5541 7.421 27.7911 7.421 19.9362C7.421 17.6983 8.21537 15.8704 9.53079 14.4354C9.30017 13.9177 8.60829 11.8336 9.71017 9.0097C9.71017 9.0097 11.427 8.45962 15.3477 11.1109C16.9877 10.6548 18.7302 10.4293 20.4727 10.4191C22.2152 10.4293 23.9577 10.6548 25.5977 11.1109C29.4927 8.45962 31.2095 9.0097 31.2095 9.0097C32.3114 11.8336 31.6195 13.9177 31.4145 14.4354C32.7214 15.8704 33.5158 17.6983 33.5158 19.9362C33.5158 27.8116 28.7239 29.5456 24.1627 30.0495C24.8802 30.6645 25.5464 31.9219 25.5464 33.842C25.5464 36.5856 25.5208 38.7894 25.5208 39.4556C25.5208 39.9937 25.8795 40.6344 26.9302 40.4294C35.1319 37.7404 41 30.0529 41 21.0073C41 9.6862 31.8211 0.507324 20.5 0.507324Z" fill="white"/>
</g>
<defs>
<clipPath id="clip0_19_47">
<rect width="41" height="41" fill="white"/>
</clipPath>
</defs>
</svg>
