<svg width="41" height="41" viewBox="0 0 41 41" fill="none" xmlns="http://www.w3.org/2000/svg">
<g clip-path="url(#clip0_19_49)">
<path d="M31.3906 0H9.60938C4.30226 0 0 4.30226 0 9.60938V31.3906C0 36.6977 4.30226 41 9.60938 41H31.3906C36.6977 41 41 36.6977 41 31.3906V9.60938C41 4.30226 36.6977 0 31.3906 0Z" fill="#D34A47"/>
<path d="M24.7331 37.055L25.071 31.422L26.0046 29.8286C26.0046 29.8286 23.8799 30.6976 20.3233 30.6976C16.7664 30.6976 14.6742 29.8446 14.6742 29.8446L15.7203 31.5828L16.0904 37.055C16.0904 37.6417 18.0251 38.1172 20.4118 38.1172C22.7982 38.1172 24.7331 37.6417 24.7331 37.055ZM23.6666 10.7499L24.3763 7.9452L28.3055 3.81061L27.27 2.92847L23.1099 7.33276L22.2861 10.6837C21.666 10.663 21.0456 10.6527 20.4252 10.6528C16.044 10.6528 12.4922 11.152 12.4922 11.7678C12.4922 12.3838 16.044 12.883 20.4252 12.883C24.8064 12.883 28.3582 12.3838 28.3582 11.7678C28.3582 11.3144 26.4319 10.9241 23.6666 10.7499Z" fill="white"/>
<path d="M23.2539 12.3204C23.2539 12.3204 23.1003 12.355 22.6482 12.3569C22.1961 12.3587 21.8751 12.3539 21.7471 12.2374C21.7127 12.2062 21.694 12.1441 21.6941 12.102C21.6944 12.0219 21.7513 11.9748 21.8237 11.9453L21.8921 12.0526C21.8624 12.0629 21.8453 12.075 21.8453 12.088C21.845 12.1489 22.3077 12.1905 22.6615 12.186C23.0153 12.1815 23.4429 12.1524 23.4432 12.0925C23.4432 12.0744 23.411 12.0573 23.3546 12.044L23.4229 11.9373C23.5145 11.9657 23.5945 12.0206 23.5944 12.1159C23.5936 12.2776 23.3876 12.3023 23.2539 12.3204ZM28.2978 3.81867C28.3967 3.70464 28.2468 3.41267 27.963 3.16683C27.6792 2.92115 27.3689 2.81449 27.27 2.92852C27.1711 3.04255 27.3211 3.33452 27.605 3.58036C27.8886 3.82604 28.199 3.93286 28.2978 3.81867ZM24.5441 23.2959C24.4509 22.3998 26.5038 21.1023 25.977 21.0608C24.8428 21.1255 24.2782 22.3899 23.7076 23.7141C23.4986 24.1994 22.783 26.2687 22.3138 26.0141C21.8445 25.7594 22.922 24.0576 23.2239 23.047C22.8754 23.3025 21.5976 24.2954 21.2683 23.3656C20.7388 23.8153 19.6074 24.0589 19.7351 22.8777C19.4534 23.3766 18.8212 24.0732 18.0624 23.7837C17.0658 23.4037 18.6398 20.2292 19.0312 20.3894C19.4226 20.5496 18.9523 21.2727 18.8289 21.5534C18.5579 22.1715 18.245 22.9484 18.4542 23.1074C18.8123 23.3798 19.7871 22.0766 19.8089 22.048C19.9912 21.8071 20.5106 20.2312 20.9294 20.4121C21.348 20.5931 19.885 22.6739 20.4321 23.0867C20.5423 23.1702 20.9938 23.0353 21.2683 22.7382C21.4459 22.5462 21.3849 22.1205 21.977 20.7083C22.5692 19.296 23.0971 17.5373 23.5031 17.6714C23.9092 17.8053 23.5745 18.7079 23.4288 19.0444C22.7451 20.6237 21.5628 23.233 22.1205 23.0353C22.678 22.8379 22.9683 22.8263 23.5143 22.1875C24.0603 21.5484 24.0351 20.4961 24.399 20.5185C24.763 20.5409 24.702 20.8784 24.6136 21.1352C24.9719 20.7254 26.3114 19.8622 26.6349 20.7171C27.018 21.7293 24.7182 23.1913 25.2917 23.1167C25.8507 23.044 26.7563 22.4705 27.1431 21.9488L28.2075 12.3795C28.2075 12.3795 27.1364 13.2658 20.3222 13.2658C13.5079 13.2658 12.5476 12.3978 12.5476 12.3978L13.4538 21.1325C13.9349 19.7654 15.0771 17.0002 16.8776 17.0929C17.6965 17.1352 18.7899 18.7122 17.8533 18.7657C17.4569 18.7882 17.4167 17.9786 16.9473 17.8596C16.6085 17.7737 16.1369 18.0492 15.8321 18.3476C15.2243 18.9424 13.9169 21.2895 14.0896 22.4596C14.3098 23.9514 16.1482 21.9412 16.4594 21.3444C16.6785 20.924 16.8265 19.6785 17.3055 19.8092C17.7849 19.9398 17.2637 21.2253 16.9165 22.3617C16.5262 23.6378 16.3212 24.984 15.8322 24.8292C15.343 24.6744 16.1397 23.027 16.1109 22.7382C15.6513 23.1625 14.8042 24.2362 13.7207 23.7048L14.2835 29.129C14.2835 29.129 15.7794 30.3108 20.2852 30.3108C24.7912 30.3108 26.3423 29.1474 26.3423 29.1474L27.0413 22.8649C26.4695 23.4216 24.6599 24.4103 24.5441 23.2959Z" fill="white"/>
</g>
<defs>
<clipPath id="clip0_19_49">
<rect width="41" height="41" fill="white"/>
</clipPath>
</defs>
</svg>
