<svg width="41" height="41" viewBox="0 0 41 41" fill="none" xmlns="http://www.w3.org/2000/svg">
<path d="M7.56194 34.8513L4.68425 2.5625H36.3158L33.4342 34.8462L20.4808 38.4375L7.56194 34.8513Z" fill="#1572B6"/>
<path d="M20.5 35.693L30.9678 32.791L33.4304 5.20312H20.5V35.693Z" fill="#33A9DC"/>
<path d="M20.5 16.901H25.7403L26.1016 12.8458H20.5V8.8855H30.4297L30.3349 9.94765L29.3624 20.8613H20.5V16.901Z" fill="white"/>
<path d="M20.5243 27.1855L20.5064 27.1907L16.0963 25.9991L15.8145 22.8408H11.8387L12.3935 29.0587L20.5051 31.3112L20.5243 31.306V27.1855Z" fill="#EBEBEB"/>
<path d="M25.4033 20.6934L24.9267 25.9965L20.5103 27.188V31.3085L28.6283 29.0586L28.6885 28.3898L29.3765 20.6934H25.4033Z" fill="white"/>
<path d="M20.5141 8.8855V12.8458H10.9483L10.8688 11.9554L10.6882 9.94765L10.5934 8.8855H20.5141ZM20.5 16.901V20.8613H16.145L16.0656 19.9709L15.8862 17.9632L15.7914 16.901H20.5Z" fill="#EBEBEB"/>
</svg>
