<?xml version="1.0" standalone="no"?>
<!DOCTYPE svg PUBLIC "-//W3C//DTD SVG 20010904//EN"
 "http://www.w3.org/TR/2001/REC-SVG-20010904/DTD/svg10.dtd">
<svg version="1.0" xmlns="http://www.w3.org/2000/svg"
 width="500.000000pt" height="500.000000pt" viewBox="0 0 500.000000 500.000000"
 preserveAspectRatio="xMidYMid meet">

<g transform="translate(0.000000,500.000000) scale(0.100000,-0.100000)"
fill="#DBC3F9" stroke="none">
<path d="M2410 4994 c-310 -29 -589 -105 -859 -235 l-144 -69 -217 0 -218 0
-98 -71 c-53 -39 -108 -75 -120 -79 -12 -5 -80 -66 -151 -137 -181 -181 -338
-394 -443 -604 -39 -77 -110 -235 -110 -245 0 -2 177 -4 394 -4 l395 0 39 78
c114 228 286 410 515 544 138 81 361 164 375 141 5 -7 42 -4 112 10 91 18 143
21 400 21 308 1 382 -6 603 -54 50 -11 118 -20 152 -20 52 0 71 -6 152 -49 51
-27 118 -69 150 -94 86 -66 197 -187 259 -283 l55 -84 180 0 179 0 0 224 0
225 27 3 c25 3 18 12 -108 138 -73 74 -176 167 -227 205 l-92 70 122 3 122 3
-59 36 c-95 57 -311 158 -422 197 -129 44 -317 90 -453 111 -103 15 -421 27
-510 19z"/>
<path d="M4060 3950 l0 -250 -180 0 -180 0 30 -60 c64 -126 120 -302 145 -452
l6 -38 239 0 240 0 0 300 0 301 -26 52 c-54 106 -251 397 -269 397 -3 0 -5
-112 -5 -250z"/>
<path d="M1984 3939 c-39 -5 -102 -17 -140 -27 -63 -16 -69 -19 -72 -45 -3
-23 -13 -32 -67 -56 -93 -42 -171 -99 -250 -182 l-70 -74 183 -3 c153 -2 182
-5 182 -17 0 -13 -29 -15 -192 -15 l-193 0 -26 -43 c-55 -87 -105 -207 -124
-294 l-7 -33 194 0 194 0 21 43 c33 68 112 165 167 207 117 88 219 121 381
121 167 0 257 -34 342 -130 25 -28 33 -32 33 -18 0 34 32 88 61 102 21 11 68
15 189 15 l160 0 38 -34 37 -34 3 -136 4 -136 180 0 180 0 -7 43 c-12 69 -53
187 -98 277 -31 63 -60 104 -113 158 l-71 72 -647 0 -646 0 0 30 0 30 618 0
617 1 -40 25 c-95 60 -230 108 -385 135 -132 24 -514 35 -636 18z"/>
<path d="M4701 3388 l-1 -298 -240 0 -240 0 8 -47 c11 -71 7 -663 -5 -698 -9
-30 -10 -30 -95 -33 l-85 -3 -13 -42 c-16 -53 -55 -132 -86 -174 -13 -17 -24
-34 -24 -37 0 -3 37 -6 83 -6 l82 -1 -65 -60 c-100 -93 -243 -155 -402 -174
-116 -13 -316 23 -420 76 -20 10 -40 19 -43 19 -3 0 -5 -104 -5 -231 l0 -230
23 7 c42 13 142 67 215 116 112 76 121 78 296 78 100 0 156 4 158 11 9 28 98
-37 98 -73 0 -17 18 -18 328 -18 l329 0 37 80 37 79 52 3 51 3 37 105 c46 130
93 319 116 470 24 159 24 491 0 650 -35 229 -106 473 -186 643 l-39 82 -1
-297z m119 -1208 l0 -130 -85 0 -85 0 0 130 0 130 85 0 85 0 0 -130z"/>
<path d="M18 3493 c-7 -17 -14 -93 -16 -186 l-3 -157 357 2 357 3 18 83 c10
45 34 127 53 182 l34 100 -394 0 -394 0 -12 -27z"/>
<path d="M252 3014 c-46 -295 -37 -619 24 -884 12 -50 15 -128 14 -346 0 -199
3 -289 11 -308 l12 -26 413 0 413 0 -53 70 c-95 127 -185 306 -230 458 l-15
52 115 0 c62 0 114 3 114 8 0 4 -8 48 -17 97 -13 73 -17 158 -17 440 -1 193 2
387 7 433 l7 82 -393 0 -393 0 -12 -76z m648 -394 l0 -110 -185 0 -185 0 0
110 0 110 185 0 185 0 0 -110z"/>
<path d="M1545 3078 c-28 -81 -44 -526 -26 -738 6 -74 20 -172 31 -218 11 -46
20 -85 20 -88 0 -2 -50 -4 -111 -4 -128 0 -124 7 -61 -113 115 -214 300 -366
540 -441 l83 -26 392 1 c259 1 409 5 442 13 l50 11 3 236 2 236 -27 18 c-16
10 -39 28 -53 41 l-26 24 -64 -66 c-116 -118 -226 -157 -445 -158 -127 0 -147
2 -220 28 -44 15 -104 43 -134 62 -59 40 -141 112 -141 125 0 5 47 9 105 9
l104 0 -29 44 c-47 69 -87 173 -111 287 -42 202 -24 501 40 669 12 30 21 56
21 58 0 1 -86 2 -190 2 -144 0 -192 -3 -195 -12z"/>
<path d="M3370 2755 c0 -372 1 -377 64 -433 38 -33 55 -39 72 -22 5 5 49 10
99 12 89 3 89 3 112 37 13 19 28 52 34 75 17 60 17 450 0 569 l-14 97 -183 0
-184 0 0 -335z"/>
<path d="M2493 2975 c-93 -47 -145 -134 -165 -274 -13 -98 0 -225 30 -295 46
-103 136 -166 236 -166 121 0 201 51 252 162 28 60 29 69 29 208 0 114 -4 156
-18 197 -42 121 -121 183 -241 190 -62 4 -78 1 -123 -22z"/>
<path d="M4030 1523 c0 -22 -20 -48 -93 -119 -159 -155 -412 -305 -640 -379
l-108 -35 -297 0 c-214 0 -322 -4 -387 -15 -111 -18 -115 -18 -115 0 0 13 -24
15 -156 15 -148 0 -161 2 -248 31 -164 55 -323 145 -468 266 -43 36 -91 80
-106 99 l-28 34 -414 -2 -413 -3 68 -100 c153 -226 334 -416 549 -576 l81 -61
3 56 3 56 38 -24 c51 -33 189 -102 284 -142 l79 -34 364 0 364 0 0 115 0 115
45 0 45 0 0 -200 0 -200 -357 -1 -358 0 70 -25 c98 -35 289 -80 425 -101 159
-24 491 -24 650 0 479 73 893 265 1248 578 l45 39 -752 0 c-494 0 -751 3 -751
10 0 7 176 10 508 10 496 0 509 0 527 20 17 19 31 20 276 20 l258 0 80 93 c45
51 108 128 141 172 57 77 173 262 186 298 6 16 -14 17 -320 17 l-326 0 0 -27z"/>
<path d="M2345 1407 c65 -13 522 -13 600 0 47 8 -19 11 -295 11 -269 0 -343
-3 -305 -11z"/>
</g>
</svg>
