<svg width="60" height="60" viewBox="0 0 60 60" fill="none" xmlns="http://www.w3.org/2000/svg">
<path fill-rule="evenodd" clip-rule="evenodd" d="M49.4425 11.075C50.0603 10.815 50.7365 10.7253 51.4007 10.8153C52.0649 10.9053 52.6929 11.1717 53.2192 11.5867C53.7455 12.0018 54.151 12.5503 54.3934 13.1752C54.6358 13.8001 54.7063 14.4786 54.5975 15.14L48.9275 49.5325C48.3775 52.85 44.7375 54.7525 41.695 53.1C39.15 51.7175 35.37 49.5875 31.97 47.365C30.27 46.2525 25.0625 42.69 25.7025 40.155C26.2525 37.9875 35.0025 29.8425 40.0025 25C41.965 23.0975 41.07 22 38.7525 23.75C32.9975 28.095 23.7575 34.7025 20.7025 36.5625C18.0075 38.2025 16.6025 38.4825 14.9225 38.2025C11.8575 37.6925 9.01499 36.9025 6.69499 35.94C3.55999 34.64 3.71249 30.33 6.69249 29.075L49.4425 11.075Z" fill="white"/>
</svg>
