<svg width="41" height="41" viewBox="0 0 41 41" fill="none" xmlns="http://www.w3.org/2000/svg">
<path d="M2.5625 2.5625H38.4375V38.4375H2.5625V2.5625Z" fill="#F5DE19"/>
<path d="M26.6615 30.5898C26.9672 31.2107 27.4421 31.7326 28.0315 32.0953C28.6209 32.458 29.3008 32.6468 29.9928 32.6398C31.3893 32.6398 32.2824 31.9415 32.2824 30.9742C32.2824 29.8211 31.365 29.4085 29.8275 28.7359L28.9844 28.3745C26.5501 27.338 24.9357 26.0401 24.9357 23.2957C24.9357 20.7678 26.8576 18.842 29.8723 18.842C30.8483 18.7716 31.8234 18.99 32.676 19.4701C33.5286 19.9501 34.221 20.6706 34.6668 21.5416L32.0312 23.2265C31.8596 22.7946 31.5607 22.4251 31.1742 22.167C30.7877 21.9089 30.3319 21.7743 29.8672 21.7812C29.6645 21.7609 29.4597 21.7831 29.266 21.8463C29.0723 21.9095 28.8939 22.0124 28.7421 22.1483C28.5904 22.2843 28.4686 22.4504 28.3846 22.636C28.3006 22.8216 28.2561 23.0227 28.2541 23.2265C28.2541 24.2374 28.8807 24.6474 30.3272 25.2765L31.1702 25.6378C34.0351 26.8665 35.6546 28.1183 35.6546 30.9332C35.6546 33.9685 33.2702 35.6315 30.0684 35.6315C28.8208 35.711 27.5769 35.4278 26.4868 34.816C25.3967 34.2042 24.5069 33.29 23.9248 32.1837L26.6615 30.5898ZM14.7523 30.882C15.2815 31.8211 15.7632 32.6155 16.9215 32.6155C18.0285 32.6155 18.728 32.1824 18.728 30.4976V19.0342H22.099V30.5424C22.099 34.0325 20.049 35.6213 17.065 35.6213C16.0102 35.679 14.9626 35.4161 14.06 34.8673C13.1574 34.3184 12.442 33.5093 12.0079 32.5463L14.7523 30.882Z" fill="black"/>
</svg>
