<svg width="41" height="41" viewBox="0 0 41 41" fill="none" xmlns="http://www.w3.org/2000/svg">
<path d="M7.56194 34.8513L4.68297 2.5625H36.317L33.4342 34.8462L20.4808 38.4375L7.56194 34.8513Z" fill="#E44F26"/>
<path d="M20.5 35.693L30.9678 32.791L33.4304 5.20312H20.5V35.693Z" fill="#F1662A"/>
<path d="M20.5 17.1776H15.2597L14.8984 13.1225H20.5V9.16211H10.5703L10.6651 10.2255L11.6376 21.138H20.5V17.1776ZM20.5 27.4622L20.4821 27.4673L16.072 26.277L15.7901 23.1188H11.8144L12.3692 29.3354L20.4821 31.5878L20.5 31.5827V27.4622Z" fill="#EBEBEB"/>
<path d="M20.4859 17.1776V21.138H25.3623L24.9037 26.2745L20.4859 27.466V31.5865L28.6052 29.3354L28.6641 28.6666L29.5943 18.241L29.6917 17.1776H28.6244H20.4859ZM20.4859 9.16211V13.1225H30.0517L30.1312 12.2333L30.3118 10.2255L30.4066 9.16211H20.4859Z" fill="white"/>
</svg>
