<svg width="41" height="41" viewBox="0 0 41 41" fill="none" xmlns="http://www.w3.org/2000/svg">
<g clip-path="url(#clip0_52_17)">
<path d="M31.3906 0H9.60938C4.30226 0 0 4.30226 0 9.60938V31.3906C0 36.6977 4.30226 41 9.60938 41H31.3906C36.6977 41 41 36.6977 41 31.3906V9.60938C41 4.30226 36.6977 0 31.3906 0Z" fill="#F4F2ED"/>
<path d="M33.4502 16.0076C33.3905 14.6628 33.5697 13.4707 32.9725 12.4619C31.5396 9.95547 27.9569 8.48828 20.7915 8.48828C13.6261 8.48828 9.86435 9.95547 8.43127 12.4925C7.864 13.5319 7.92358 14.6934 7.83405 16.0384C7.77431 17.1081 7.29673 18.2391 7.50573 19.4617C7.74452 21.0513 7.83405 22.6406 8.073 24.108C8.25206 25.3 9.86435 26.3087 10.0136 27.4397C10.4316 30.5575 13.5963 31.9941 20.7615 31.9941V32.2387H20.5825H20.7915V31.9941C27.9569 31.9941 31.0021 30.5575 31.3902 27.4397C31.5396 26.2781 33.0322 25.3 33.2114 24.108C33.4502 22.6406 33.5398 21.0513 33.7787 19.4617C33.9877 18.2391 33.51 17.0775 33.4502 16.0076Z" fill="#EFCCA3"/>
<path d="M20.672 17.1082C21.9558 17.1386 22.8514 17.964 23.6874 18.7281C24.6727 19.6146 26.3446 20.2259 27.0313 20.99C27.7179 21.7543 28.6137 22.5184 28.942 23.7104C29.2705 24.9026 29.36 26.431 29.36 26.8284C29.36 27.2257 29.569 27.1339 30.1661 26.8284C31.5694 26.1253 33.1218 24.2301 33.1218 24.2301C32.9427 25.4222 31.4201 26.492 31.2708 27.6231C30.9126 30.7408 27.9567 32.2386 20.6422 32.2386H20.6123H20.7915" fill="#CCAC8D"/>
<path d="M25.3892 14.724C25.658 15.6714 26.6133 18.881 24.7622 17.8111C24.7622 17.8111 25.5385 18.2697 26.0163 20.012C26.5238 21.7543 27.7479 21.9683 27.7479 21.9683C27.7479 21.9683 29.7482 22.3657 31.2409 21.0513C32.4949 19.9508 32.7039 17.9945 32.1664 16.4967C31.6291 15.0297 30.6738 14.5712 29.2705 14.2654C27.8673 13.9291 25.0608 13.6541 25.3892 14.724Z" fill="#CCAC8D"/>
<path d="M28.2554 17.7196C28.6347 17.7196 28.942 17.4048 28.942 17.0166C28.942 16.6282 28.6347 16.3135 28.2554 16.3135C27.8762 16.3135 27.5687 16.6282 27.5687 17.0166C27.5687 17.4048 27.8762 17.7196 28.2554 17.7196Z" fill="white"/>
<path d="M24.9414 18.0862C24.9414 18.0862 27.2999 19.7368 28.5837 21.3569C29.8675 22.9769 29.8377 23.2826 29.8377 23.2826L28.9122 23.7105C28.9122 23.7105 27.5986 21.1734 25.9863 20.2259C24.3442 19.2782 24.1652 18.4835 24.1652 18.4835L24.9414 18.0862Z" fill="#EFCCA3"/>
<path d="M20.7615 17.1082C19.4777 17.1386 18.5224 17.964 17.6566 18.7281C16.6713 19.6146 14.9397 20.2259 14.2531 20.99C13.5664 21.7543 12.6408 22.5184 12.3125 23.7104C11.9842 24.9026 11.8645 26.431 11.8645 26.8284C11.8645 27.2257 11.9243 27.2563 11.0585 26.8284C9.65534 26.1559 8.10278 24.2301 8.10278 24.2301C8.28184 25.4222 9.8046 26.492 9.95387 27.6231C10.3719 30.7408 13.3276 32.2386 20.6422 32.2386H20.7915" fill="#CCAC8D"/>
<path d="M27.6881 22.2738C26.255 20.4705 23.9562 18.7893 20.7615 18.7893H20.7317C17.5371 18.7893 15.2384 20.4705 13.8051 22.2738C12.3125 24.1384 12.4318 24.872 12.4318 26.645C12.4318 33.0639 14.6412 31.2299 16.104 32.0246C17.5968 32.7889 19.1494 32.5443 20.7317 32.5443H20.7615C22.3738 32.5443 23.8964 32.7583 25.3892 31.9942C26.8521 31.2299 29.0615 33.1251 29.0615 26.706C29.0913 24.9332 29.1809 24.1384 27.6881 22.2738Z" fill="#56332B"/>
<path d="M20.6123 20.3787C20.6123 20.3787 20.4033 23.3436 19.9854 23.9245L20.7615 23.741L20.6123 20.3787Z" fill="#442823"/>
<path d="M20.8213 20.3787C20.8213 20.3787 21.0303 23.3436 21.4483 23.9245L20.672 23.741L20.8213 20.3787Z" fill="#442823"/>
<path d="M18.3134 19.6756C18.0148 18.9726 19.0897 17.8416 20.7915 17.811C22.4933 17.811 23.5679 18.9421 23.2694 19.6756C22.9709 20.4092 21.8961 20.6232 20.7915 20.6538C19.7167 20.6232 18.6119 20.4092 18.3134 19.6756Z" fill="#56332B"/>
<path d="M20.8511 24.4749C21.3588 24.4749 22.2544 24.8416 23.0604 25.4223C22.2842 24.5359 21.3588 23.9246 20.8511 23.9246C20.3138 23.9246 19.1792 24.5971 18.3731 25.5753C19.2092 24.9028 20.284 24.4749 20.8511 24.4749Z" fill="#7F4A41"/>
<path d="M20.6422 29.8849C19.5077 29.8849 18.4029 29.5182 17.3879 29.243C17.1788 29.182 16.9698 29.3348 16.761 29.2736C14.88 28.6623 13.3574 27.6231 12.432 26.3087V26.6144C12.432 33.0335 14.6412 31.2299 16.104 31.9942C17.5969 32.7583 19.1494 32.5137 20.7318 32.5137H20.7615C22.3738 32.5137 23.8964 32.7277 25.3893 31.9636C26.8521 31.1993 29.0615 33.064 29.0615 26.645C29.0615 26.4004 29.0615 26.1559 29.0913 25.9419C28.2255 27.3785 26.6431 28.5095 24.6727 29.182C24.4935 29.243 24.0755 29.0902 23.8964 29.1208C22.8216 29.4876 21.8663 29.8849 20.6422 29.8849Z" fill="#442823"/>
<path d="M17.8059 26.4312C17.8059 26.4312 17.0595 28.7236 17.5671 29.7323L16.8803 29.4267C16.8803 29.4267 17.3878 27.1036 17.8059 26.4312ZM23.7172 26.4312C23.7172 26.4312 24.4637 28.7236 23.9562 29.7323L24.6428 29.4267C24.6428 29.4267 24.1054 27.1036 23.7172 26.4312Z" fill="#442823"/>
<path d="M15.8952 14.724C15.6264 15.6714 14.6711 18.881 16.522 17.8111C16.522 17.8111 15.7458 18.2697 15.268 20.012C14.7904 21.7543 13.5366 21.9683 13.5366 21.9683C13.5366 21.9683 11.5362 22.3657 10.0436 21.0513C8.78954 19.9508 8.58053 17.9945 9.11786 16.4967C9.65534 14.9989 10.6107 14.5712 12.0138 14.2654C13.4171 13.9291 16.1937 13.6541 15.8952 14.724Z" fill="#CCAC8D"/>
<path d="M21.4132 19.6924C21.541 19.6588 21.5945 19.4326 21.5327 19.1874C21.471 18.9422 21.3173 18.7709 21.1896 18.8045C21.0618 18.8383 21.0083 19.0644 21.0702 19.3096C21.132 19.5548 21.2856 19.7262 21.4132 19.6924ZM19.8788 19.6879C20.0046 19.728 20.1662 19.5643 20.2396 19.3225C20.3128 19.0806 20.2702 18.8521 20.1441 18.812C20.0181 18.772 19.8567 18.9357 19.7833 19.1775C19.7099 19.4193 19.7527 19.6479 19.8788 19.6879Z" fill="#331712"/>
<path d="M13.1783 17.7196C13.5575 17.7196 13.8649 17.4048 13.8649 17.0166C13.8649 16.6282 13.5574 16.3135 13.1783 16.3135C12.799 16.3135 12.4915 16.6282 12.4915 17.0166C12.4915 17.4048 12.799 17.7196 13.1783 17.7196Z" fill="white"/>
<path d="M21.5378 18.239C21.5378 18.2084 20.8512 18.5448 20.672 18.5754C20.493 18.5448 19.8062 18.2084 19.8062 18.239H20.672H21.5378Z" fill="#7F4A41"/>
<path d="M16.313 18.0862C16.313 18.0862 13.9546 19.7368 12.6708 21.3569C11.387 22.9769 11.4167 23.2826 11.4167 23.2826L12.3424 23.7105C12.3424 23.7105 13.6559 21.1734 15.2682 20.2259C16.8803 19.2782 17.0893 18.4835 17.0893 18.4835L16.313 18.0862Z" fill="#EFCCA3"/>
<path d="M11.148 13.1956C11.148 13.1956 10.3419 15.4575 8.55057 16.4051C8.55057 16.4051 11.357 16.0688 11.148 13.1956ZM29.987 13.1956C29.987 13.1956 30.7931 15.4575 32.5844 16.4051C32.5844 16.4051 29.778 16.0688 29.987 13.1956ZM24.8817 17.4138C24.8817 17.4138 23.1201 15.5186 20.7615 15.4575H20.8213C18.4328 15.5186 16.7012 17.4138 16.7012 17.4138C18.7612 15.9466 20.5227 15.9772 20.8213 15.9772C20.7915 15.9772 22.8216 15.9466 24.8817 17.4138ZM22.8216 13.4401C22.8216 13.4401 21.926 12.1563 20.7317 12.1257H20.7915C19.8957 12.1562 18.7314 13.4401 18.7314 13.4401C19.7465 12.4315 20.7915 12.4619 20.7915 12.4619C20.7915 12.4619 21.7766 12.4315 22.8216 13.4401ZM12.4915 22.824C12.4915 22.824 11.0884 23.5271 10.0732 23.0992H10.0434C9.14763 22.5796 8.69983 21.0207 8.69983 21.0207C8.69983 21.0207 9.59559 23.7717 12.4915 22.824ZM28.8525 22.824C28.8525 22.824 30.2556 23.5271 31.2708 23.0992C32.4649 22.5796 32.6442 21.0207 32.6442 21.0207C32.6442 21.0207 31.7484 23.7717 28.8525 22.824Z" fill="#CCAC8D"/>
<path d="M14.1038 13.0428C14.88 12.8898 16.1638 12.8592 17.1788 13.1956C18.4627 13.6541 17.4178 15.3353 17.6864 15.4269C17.9551 15.5186 18.3134 14.2654 20.7018 14.3876C23.1202 14.51 23.3889 15.6104 23.7172 15.427C24.0457 15.2435 23.3889 12.3703 27.0014 13.0428C27.0014 13.0428 23.2097 12.0034 23.3889 14.8157C23.3889 14.8157 21.2093 13.1038 18.1641 14.6322C18.1939 14.6322 18.9702 12.0035 14.1037 13.0428M27.3299 13.0428C27.3896 13.0428 27.4194 13.0732 27.4494 13.0732C27.4791 13.0732 27.4194 13.0428 27.3299 13.0428ZM13.0588 9.28296C13.0588 9.28296 9.8344 13.4403 9.35682 15.0295C8.87907 16.6497 8.5208 23.2825 8.10279 24.2302L6.61014 17.6889L9.35682 10.8725L13.0588 9.28296ZM28.2255 9.28296C28.2255 9.28296 31.4499 13.4401 31.9276 15.0295C32.4054 16.6497 32.7637 23.2825 33.1815 24.2302L34.6743 17.6889L31.9276 10.8725L28.2255 9.28296Z" fill="#CCAC8D"/>
<path d="M28.0762 9.28308C28.0762 9.28308 31.5394 12.248 32.5545 15.6717C33.5697 19.095 33.1517 23.2521 33.928 23.7718C35.0326 24.5054 36.2864 20.1343 36.7044 19.6758C37.3612 18.9423 39.5408 17.0777 39.6901 16.7414C39.8393 16.4052 35.2714 11.3006 33.271 10.2919C30.8528 9.13029 27.8672 9.03852 28.0762 9.28308Z" fill="#56332B"/>
<path d="M31.0319 11.1172C31.0319 11.1172 35.1221 16.4662 35.0624 23.1299L36.7044 19.7064C36.6746 19.7064 35.2416 15.3354 31.0319 11.1172Z" fill="#442823"/>
<path d="M13.0588 9.28308C13.0588 9.28308 9.59559 12.248 8.58052 15.6717C7.56529 19.095 7.9833 23.2521 7.20718 23.7718C6.10242 24.5054 4.84856 20.1343 4.43055 19.6758C3.77375 18.9423 1.59418 17.0777 1.44492 16.7414C1.29565 16.4052 5.86363 11.3006 7.86398 10.2919C10.2823 9.13029 13.2678 9.03852 13.0588 9.28308Z" fill="#56332B"/>
<path d="M10.1031 11.1172C10.1031 11.1172 6.01291 16.4662 6.07265 23.1299L4.46036 19.7064C4.46036 19.7064 5.89344 15.3354 10.1031 11.1172Z" fill="#442823"/>
<path d="M7.89377 23.252C7.89377 23.252 8.1923 24.9026 8.67005 25.4222C9.14779 25.9419 8.81931 25.0248 8.81931 25.0248C8.81931 25.0248 8.31162 24.7498 8.4013 22.6406C8.49099 20.5315 7.89377 23.252 7.89377 23.252ZM33.3607 23.252C33.3607 23.252 33.0622 24.9026 32.5844 25.4222C32.1067 25.9419 32.4352 25.0248 32.4352 25.0248C32.4352 25.0248 32.9427 24.7498 32.8532 22.6406C32.7635 20.5315 33.3607 23.252 33.3607 23.252Z" fill="#CCAC8D"/>
<path d="M17.6566 22.2434C17.7886 22.2434 17.8954 22.134 17.8954 21.9988C17.8954 21.8638 17.7886 21.7544 17.6566 21.7544C17.5246 21.7544 17.4178 21.8638 17.4178 21.9988C17.4178 22.134 17.5246 22.2434 17.6566 22.2434ZM16.2832 23.7105C16.4151 23.7105 16.522 23.6012 16.522 23.4661C16.522 23.331 16.4151 23.2216 16.2832 23.2216C16.1513 23.2216 16.0443 23.331 16.0443 23.4661C16.0443 23.6012 16.1513 23.7105 16.2832 23.7105ZM15.8354 22.2434C15.9673 22.2434 16.0742 22.134 16.0742 21.9988C16.0742 21.8638 15.9673 21.7544 15.8354 21.7544C15.7035 21.7544 15.5965 21.8638 15.5965 21.9988C15.5965 22.134 15.7035 22.2434 15.8354 22.2434ZM23.4784 22.2434C23.6104 22.2434 23.7174 22.134 23.7174 21.9988C23.7174 21.8638 23.6104 21.7544 23.4784 21.7544C23.3466 21.7544 23.2396 21.8638 23.2396 21.9988C23.2396 22.134 23.3466 22.2434 23.4784 22.2434ZM24.8518 23.7105C24.9837 23.7105 25.0907 23.6012 25.0907 23.4661C25.0907 23.331 24.9837 23.2216 24.8518 23.2216C24.72 23.2216 24.613 23.331 24.613 23.4661C24.613 23.6012 24.72 23.7105 24.8518 23.7105ZM25.2997 22.2434C25.4317 22.2434 25.5385 22.134 25.5385 21.9988C25.5385 21.8638 25.4317 21.7544 25.2997 21.7544C25.1678 21.7544 25.0609 21.8638 25.0609 21.9988C25.0609 22.134 25.1678 22.2434 25.2997 22.2434Z" fill="#442823"/>
<path d="M12.648 20.1215C14.1158 20.1215 15.306 18.9261 15.306 17.4514C15.306 15.9767 14.116 14.7812 12.648 14.7812C11.1802 14.7812 9.99005 15.9767 9.99005 17.4514C9.99005 18.9261 11.18 20.1215 12.648 20.1215Z" fill="black" stroke="#242938" stroke-opacity="0.8" stroke-width="0.32"/>
<path d="M13.7867 17.3537C14.1746 17.3537 14.4892 17.0488 14.4892 16.6726C14.4892 16.2964 14.1746 15.9915 13.7867 15.9915C13.3988 15.9915 13.0843 16.2964 13.0843 16.6726C13.0843 17.0488 13.3988 17.3537 13.7867 17.3537Z" fill="white"/>
<path d="M28.7247 20.1686C30.1925 20.1686 31.3825 18.9732 31.3825 17.4985C31.3825 16.0238 30.1925 14.8284 28.7247 14.8284C27.2567 14.8284 26.0667 16.0238 26.0667 17.4985C26.0667 18.9732 27.2567 20.1686 28.7247 20.1686Z" fill="black" stroke="#242938" stroke-opacity="0.8" stroke-width="0.32"/>
<path d="M27.2363 16.9221C27.4903 16.9221 27.6961 16.7213 27.6961 16.4735C27.6961 16.2257 27.4903 16.0249 27.2363 16.0249C26.9823 16.0249 26.7765 16.2257 26.7765 16.4735C26.7765 16.7213 26.9823 16.9221 27.2363 16.9221Z" fill="white"/>
<path d="M27.3278 17.2992C27.7157 17.2992 28.0301 16.9941 28.0301 16.6179C28.0301 16.2419 27.7157 15.9368 27.3278 15.9368C26.9399 15.9368 26.6253 16.2419 26.6253 16.6179C26.6253 16.9941 26.9399 17.2992 27.3278 17.2992Z" fill="white"/>
</g>
<defs>
<clipPath id="clip0_52_17">
<rect width="41" height="41" fill="white"/>
</clipPath>
</defs>
</svg>
